<svg width="194" height="55" viewBox="0 0 194 55" fill="none" xmlns="http://www.w3.org/2000/svg">
<path d="M29.3008 40.6149H34.354C35.0785 40.6149 35.7018 40.3163 36.1544 39.7509C36.3315 39.5296 36.5332 39.3286 36.753 39.1522C37.3185 38.6989 37.6178 38.0756 37.6178 37.3519V32.2979C37.6178 31.5749 37.3185 30.9516 36.753 30.4983C35.8746 29.794 35.3113 28.7109 35.3113 27.4963C35.3113 25.3742 37.0329 23.6519 39.1549 23.6519C41.277 23.6519 43 25.3734 43 27.4963C43 28.7109 42.4368 29.794 41.5583 30.4983C40.9929 30.9516 40.6935 31.5749 40.6935 32.2979V37.3519C40.6935 38.0763 40.9929 38.6989 41.5583 39.1522C42.4368 39.8564 43 40.9395 43 42.1528C43 44.2756 41.2785 45.9978 39.1549 45.9978C37.9417 45.9978 36.8586 45.4346 36.1544 44.5561C35.7018 43.9907 35.0785 43.6921 34.354 43.6921H29.3008C28.5778 43.6921 27.9545 43.9907 27.5019 44.5561C26.7976 45.4353 25.7145 45.9978 24.4999 45.9978C22.3778 45.9978 20.6562 44.2763 20.6562 42.1528C20.6562 40.0292 22.3778 38.3084 24.4999 38.3084C25.7145 38.3084 26.7976 38.8717 27.5019 39.7501C27.9545 40.3155 28.5778 40.6149 29.3008 40.6149ZM9.84263 8.99612C11.0573 8.99612 12.1411 9.55936 12.8446 10.4378C13.2973 11.0033 13.9205 11.3019 14.6435 11.3019H19.6968C20.4213 11.3019 21.0445 11.0033 21.4971 10.4378C22.2014 9.55864 23.2845 8.99612 24.4977 8.99612C25.7109 8.99612 26.7955 9.55936 27.4997 10.4378C27.9523 11.0033 28.5756 11.3019 29.2986 11.3019H34.3518C35.0763 11.3019 35.6996 11.0033 36.1522 10.4378C36.8564 9.55864 37.9395 8.99612 39.1528 8.99612C41.2763 8.99612 42.9978 10.7162 42.9978 12.8405C42.9978 14.9647 41.2763 16.6855 39.1528 16.6855C37.9395 16.6855 36.8564 16.1223 36.1522 15.2438C35.6996 14.6784 35.0763 14.3798 34.3518 14.3798H29.2986C28.5756 14.3798 27.9523 14.6791 27.4997 15.2438C26.7955 16.123 25.7124 16.6855 24.4977 16.6855C23.283 16.6855 22.2014 16.1223 21.4971 15.2438C21.0445 14.6784 20.4213 14.3798 19.6968 14.3798H14.6435C13.9205 14.3798 13.2973 14.6791 12.8446 15.2438C12.6682 15.4636 12.4658 15.6661 12.2445 15.8432C11.6806 16.2965 11.3812 16.9191 11.3812 17.6428V22.6968C11.3812 23.4213 11.6798 24.0438 12.2445 24.4971C12.4658 24.6736 12.6682 24.8746 12.8446 25.0958C13.2973 25.6612 13.9205 25.9598 14.6435 25.9598H19.6968C20.4213 25.9598 21.0445 25.6612 21.4971 25.0958C22.2014 24.2166 23.2845 23.6541 24.4977 23.6541C26.6212 23.6541 28.3428 25.3756 28.3428 27.4984C28.3428 29.6212 26.6212 31.3435 24.4977 31.3435C23.2845 31.3435 22.2014 30.7803 21.4971 29.9018C21.0445 29.3364 20.4213 29.0378 19.6968 29.0378H14.6435C13.9205 29.0378 13.2973 29.3371 12.8446 29.9003C12.6682 30.1216 12.4658 30.324 12.2445 30.5004C11.6806 30.9538 11.3812 31.577 11.3812 32.3001V37.354C11.3812 38.0785 11.6798 38.701 12.2453 39.1544C13.1237 39.8586 13.687 40.9417 13.687 42.1549C13.687 44.2777 11.9654 46 9.8419 46C7.71837 46 5.99829 44.2785 5.99829 42.1549C5.99829 40.941 6.56153 39.8579 7.44001 39.1544C8.00541 38.701 8.30402 38.0778 8.30402 37.354V32.3001C8.30402 31.577 8.00469 30.9538 7.44001 30.5004C6.5608 29.7962 5.99829 28.7131 5.99829 27.4984C5.99829 26.2837 6.56153 25.2014 7.44001 24.4979C8.00541 24.0445 8.30402 23.422 8.30402 22.6975V17.6435C8.30402 16.9205 8.00469 16.2973 7.44001 15.8439C6.5608 15.1397 5.99829 14.0566 5.99829 12.8419C5.99829 10.7184 7.71982 8.99757 9.8419 8.99757L9.84263 8.99612Z" fill="url(#paint0_linear_1_178)"/>
<path d="M167.577 42H163.617V15.2H167.937V27.52H168.177C168.977 24.16 171.617 21.72 176.377 21.72C182.497 21.72 185.857 25.88 185.857 32.08C185.857 38.2 182.457 42.4 176.137 42.4C171.617 42.4 168.697 40.24 167.857 36.28H167.577V42ZM167.937 32.28C167.937 36.44 170.497 38.44 174.777 38.44C179.137 38.44 181.537 36.84 181.537 32.08C181.537 27.28 179.097 25.64 174.857 25.64C170.377 25.64 167.937 27.72 167.937 31.96V32.28Z" fill="#210B51"/>
<path d="M146.801 42.4C142.681 42.4 140.081 40.48 140.081 37.2C140.081 34.12 142.561 32.52 146.481 32.08L155.521 31.12V29.96C155.521 26.68 154.081 25.52 150.281 25.52C146.601 25.52 144.801 26.72 144.801 29.64V29.8H140.521V29.64C140.521 25.12 144.281 21.72 150.601 21.72C156.921 21.72 159.761 25.16 159.761 29.92V42H155.801V37.04H155.521C154.481 40.4 151.321 42.4 146.801 42.4ZM144.401 36.92C144.401 38.52 145.481 39.28 147.961 39.28C152.481 39.28 155.521 37.6 155.521 33.68L147.721 34.56C145.481 34.84 144.401 35.36 144.401 36.92Z" fill="#210B51"/>
<path d="M136.961 42H132.641V15.2H136.961V42Z" fill="#210B51"/>
<path d="M119.125 42.4C112.605 42.4 108.325 38.72 108.325 32.08C108.325 25.88 112.565 21.72 119.045 21.72C125.205 21.72 129.405 25.12 129.405 31.16C129.405 31.88 129.365 32.44 129.245 33.04H112.365C112.525 36.88 114.405 38.92 119.005 38.92C123.165 38.92 124.885 37.56 124.885 35.2V34.88H129.205V35.24C129.205 39.48 125.045 42.4 119.125 42.4ZM118.965 25.12C114.565 25.12 112.645 27.08 112.405 30.64H125.325V30.56C125.325 26.88 123.205 25.12 118.965 25.12Z" fill="#210B51"/>
<path d="M93.1716 42H88.8516V22.12H92.8116V27.48H93.0916C93.6916 24.28 95.8516 21.72 99.9316 21.72C104.452 21.72 106.412 24.96 106.412 28.72V31.32H102.132V29.56C102.132 26.72 100.932 25.4 97.9716 25.4C94.5716 25.4 93.1716 27.28 93.1716 30.84V42Z" fill="#210B51"/>
<path d="M84.8512 19.8H80.5312V15.2H84.8512V19.8ZM84.8512 42H80.5312V22.12H84.8512V42Z" fill="#210B51"/>
<path d="M60.32 42H56V15.2H77.32V19.08H60.32V27.4H76.72V31.24H60.32V42Z" fill="#210B51"/>
<defs>
<linearGradient id="paint0_linear_1_178" x1="30.9033" y1="10.4194" x2="18.4495" y2="44.6653" gradientUnits="userSpaceOnUse">
<stop stop-color="#47ABF3"/>
<stop offset="0.406257" stop-color="#663EE1"/>
<stop offset="0.744792" stop-color="#9814D7"/>
<stop offset="1" stop-color="#F38269"/>
</linearGradient>
</defs>
</svg>
